<svg xmlns="http://www.w3.org/2000/svg" width="128" height="128" viewBox="0 0 128 128">
  <path fill="#1D1F23" fill-rule="evenodd" d="M490,128 C525.346224,128 554,99.346224 554,64 C554,28.653776 525.346224,0 490,0 C454.653776,0 426,28.653776 426,64 C426,99.346224 454.653776,128 490,128 Z M472,64 L490,64 C501.045695,64 510,72.954305 510,84 C510,95.045695 501.045695,104 490,104 L466,104 L472,64 Z M490,24 C501.045695,24 510,32.954305 510,44 C510,55.045695 501.045695,64 490,64 L472,64 L478,24 L490,24 Z" transform="translate(-426)"/>
</svg>
