<svg xmlns="http://www.w3.org/2000/svg" width="56" height="56" viewBox="0 0 56 56">
  <path fill="#1D1F23" fill-rule="evenodd" d="M50,29 L49.312,29 C48.381,31.752 46.53,34.219 44,36.187 L44,42 C44,43.657 42.657,45 41,45 C39.343,45 38,43.657 38,42 L38,39.439 C35.27,40.43 32.226,41 29,41 C25.774,41 22.73,40.43 20,39.439 L20,42 C20,43.657 18.657,45 17,45 C15.343,45 14,43.657 14,42 L14,36.187 C10.293,33.302 8,29.356 8,25 C8,16.163 17.402,9 29,9 C38.781,9 46.977,14.103 49.312,21 L50,21 C52.209,21 54,22.791 54,25 C54,27.209 52.209,29 50,29 M50.696,19.07 C49.646,16.717 47.979,14.593 45.864,12.799 C46.58,11.964 47.689,11 49,11 C49.553,11 50,10.553 50,10 C50,9.448 49.553,9 49,9 C47.21,9 45.424,10.423 44.271,11.571 C40.214,8.734 34.873,7 29,7 C16.298,7 6,15.059 6,25 C6,25.243 6.031,25.48 6.044,25.721 C3.956,23.863 2,21.263 2,18 C2,17.447 1.553,17 1,17 C0.447,17 0,17.447 0,18 C0,22.826 3.635,26.55 6.522,28.753 C7.39,31.921 9.312,34.781 12,37.094 L12,42 C12,44.762 14.238,47 17,47 C19.713,47 21.909,44.836 21.986,42.141 C24.198,42.695 26.553,43 29,43 C31.448,43 33.803,42.695 36.014,42.141 C36.09,44.835 38.287,47 41,47 C43.762,47 46,44.762 46,42 L46,37.089 C48.051,35.318 49.668,33.234 50.696,30.93 C53.678,30.581 56,28.075 56,25 C56,21.925 53.678,19.419 50.696,19.07 M28.999,11.969 C22.764,11.969 20.525,14.027 20.292,14.262 C19.906,14.647 19.906,15.266 20.285,15.657 C20.664,16.05 21.293,16.06 21.693,15.687 C21.711,15.671 23.598,13.969 28.999,13.969 C34.399,13.969 36.285,15.671 36.292,15.676 C36.486,15.871 36.742,15.969 36.999,15.969 C37.255,15.969 37.511,15.871 37.705,15.676 C38.097,15.285 38.097,14.652 37.705,14.262 C37.472,14.027 35.233,11.969 28.999,11.969" transform="translate(0 1)"/>
</svg>
