<svg xmlns="http://www.w3.org/2000/svg" width="40" height="40" viewBox="0 0 40 40">
  <path fill="#FFFFFF" fill-rule="evenodd" d="M19.2857143,23.44 L19.2857143,25.7142857 C19.2857143,26.1085714 18.9664286,26.4285714 18.5714286,26.4285714 C18.1764286,26.4285714 17.8571429,26.1085714 17.8571429,25.7142857 L17.8571429,23.44 C17.0271429,23.145 16.4285714,22.36 16.4285714,21.4285714 C16.4285714,20.4971429 17.0271429,19.7121429 17.8571429,19.4164286 L17.8571429,7.85714286 C17.8571429,7.46214286 18.1764286,7.14285714 18.5714286,7.14285714 C18.9664286,7.14285714 19.2857143,7.46214286 19.2857143,7.85714286 L19.2857143,19.4164286 C20.1157143,19.7121429 20.7142857,20.4971429 20.7142857,21.4285714 C20.7142857,22.36 20.1157143,23.145 19.2857143,23.44 L19.2857143,23.44 Z M19.2857143,2.89285714 L19.2857143,0.714285714 C19.2857143,0.32 18.9664286,0 18.5714286,0 C18.1764286,0 17.8571429,0.32 17.8571429,0.714285714 L17.8571429,2.89285714 C7.93357143,3.27142857 0,11.4128571 0,21.4285714 C0,31.685 8.315,40 18.5714286,40 C28.8278571,40 37.1428571,31.685 37.1428571,21.4285714 C37.1428571,11.4128571 29.2092857,3.27142857 19.2857143,2.89285714 L19.2857143,2.89285714 Z M32.2628571,7.31857143 C32.2628571,7.31857143 33.2728571,6.30857143 33.7778571,6.81357143 C34.0571429,7.09214286 34.5085714,7.09214286 34.7878571,6.81357143 C35.0671429,6.53428571 35.0671429,6.08214286 34.7878571,5.80357143 L32.7678571,3.78285714 C32.4885714,3.50428571 32.0371429,3.50428571 31.7578571,3.78285714 C31.4785714,4.06214286 31.4785714,4.51428571 31.7578571,4.79357143 C31.7578571,4.79357143 32.2628571,5.29857143 31.2528571,6.30857143 L32.2628571,7.31857143 Z" transform="translate(1)"/>
</svg>
