<svg xmlns="http://www.w3.org/2000/svg" width="23" height="23" viewBox="0 0 23 23">
  <path fill="#DA552F" fill-rule="evenodd" d="M23,11.5 C23,17.8512583 17.8512583,23 11.5,23 C5.14874167,23 0,17.8512583 0,11.5 C0,5.14874167 5.14874167,0 11.5,0 C17.8512583,0 23,5.14874167 23,11.5 Z M13.0333333,5.74996167 L13.0333333,5.7500575 L7.475,5.74996167 L7.475,17.2499617 L9.775,17.2499617 L9.775,13.8000575 L13.0333333,13.8000575 L13.0333333,13.7999617 C15.2562833,13.7999617 17.0583333,11.9979117 17.0583333,9.77496167 C17.0583333,7.55201167 15.2562833,5.74996167 13.0333333,5.74996167 Z M13.0333333,11.4999617 L13.0333333,11.5000575 L9.775,11.5000575 L9.775,8.0500575 L13.0333333,8.0500575 L13.0333333,8.04996167 C13.9860125,8.04996167 14.7583333,8.8222825 14.7583333,9.77496167 C14.7583333,10.7276408 13.9860125,11.4999617 13.0333333,11.4999617 Z"/>
</svg>
