<svg xmlns="http://www.w3.org/2000/svg" width="20" height="20" viewBox="0 0 20 20">
  <g fill="none" fill-rule="evenodd">
    <path fill="#DFA22F" d="M12.9699691,2.077946 C12.6659389,1.18664547 11.6608683,0.698905573 10.7251638,0.988613386 C9.78929536,1.27816502 9.27716688,2.23537213 9.58136103,3.12651649 L14.1880576,16.6251826 C14.5043867,17.4577607 15.4487824,17.9256662 16.3552974,17.677189 C17.3008411,17.4179357 17.8772521,16.4615094 17.5755177,15.5770807 C17.5640387,15.5433465 12.9699691,2.077946 12.9699691,2.077946"/>
    <path fill="#3CB187" d="M5.83198364,4.28675333 C5.52778949,3.39560897 4.5227189,2.90786908 3.58701441,3.19742072 C2.65114594,3.48697236 2.13901746,4.44417946 2.44321161,5.33548 L7.04990815,18.8341461 C7.36623727,19.6667242 8.31063301,20.1346297 9.21714798,19.8859963 C10.1626916,19.6268992 10.7391027,18.6704729 10.4373683,17.785888 C10.4258893,17.75231 5.83198364,4.28675333 5.83198364,4.28675333"/>
    <path fill="#CE1E5B" d="M18.7685163,13.2575441 C19.7043848,12.9679924 20.2163493,12.0107853 19.9123191,11.1194848 C19.608289,10.2283404 18.6032184,9.74060053 17.6675139,10.0301522 L3.49387033,14.4176247 C2.61966061,14.7187334 2.12835836,15.6181552 2.38926019,16.4815001 C2.66147706,17.382015 3.66572772,17.9309762 4.59438081,17.643611 C4.6298018,17.6326787 18.7685163,13.2575441 18.7685163,13.2575441"/>
    <path fill="#392538" d="M6.4479153,17.0701301 C7.3705009,16.7846391 8.55956386,16.4166867 9.83553943,16.021872 C9.53577291,15.1432218 9.14942174,14.0106282 8.73470098,12.795261 L5.34691286,13.8439876 L6.4479153,17.0701301"/>
    <path fill="#BB242A" d="M13.5860647,14.8611666 C14.8667959,14.4649463 16.0571707,14.0965254 16.9736889,13.8129085 C16.6739223,12.9342582 16.2874072,11.8013523 15.8726864,10.5856728 L12.4848983,11.6343994 L13.5860647,14.8611666"/>
    <path fill="#72C5CD" d="M16.4492614,6.45932767 C17.3849659,6.16977603 17.8970944,5.21256892 17.5930642,4.32126839 C17.2890341,3.43012403 16.2839635,2.94238414 15.348095,3.23193577 L1.17445142,7.61940833 C0.30024171,7.92051705 -0.19106054,8.81993877 0.0700052752,9.68328367 C0.342058157,10.5837986 1.34630882,11.1327598 2.27512589,10.8453946 C2.3103829,10.8344623 16.4492614,6.45932767 16.4492614,6.45932767"/>
    <path fill="#238C73" d="M4.12800444,10.2720699 C5.05059004,9.98657886 6.23998097,9.61847033 7.51612053,9.22365559 C7.10008788,8.00375924 6.71324476,6.87007244 6.41544606,5.99704458 L3.02683801,7.04592742 L4.12800444,10.2720699"/>
    <path fill="#62803A" d="M11.2659899,8.06326257 C12.547049,7.66688605 13.7375878,7.29846517 14.65427,7.01469208 C14.2380733,5.79463955 13.8512302,4.6606404 13.5532675,3.78745636 L10.1648235,4.8363392 L11.2659899,8.06326257"/>
  </g>
</svg>
